<?xml version="1.0" encoding="utf-8"?>
<!-- Generator: Adobe Illustrator 22.1.0, SVG Export Plug-In . SVG Version: 6.00 Build 0)  -->
<svg version="1.1" id="Layer_1" xmlns="http://www.w3.org/2000/svg"
  xmlns:xlink="http://www.w3.org/1999/xlink" x="0px" y="0px"
  viewBox="0 0 1000 1000" xml:space="preserve">
<style type="text/css">
	.st0{fill:#001E3C;}
	.st1{fill:#FFFFFF;}
	.st2{fill:#F15A29;}
</style>
<g>
  <g>
    <path class="st0" d="M327.7,488.8l1.4-6.5c3.4,0.9,7.8,1.4,12.1,1.4c5.8,0,7.4-1,7.4-4.2c0-3.1-1.7-3.6-5.4-4.4l-4.5-0.9
    c-7-1.4-11-3.5-11-11.2c0-7.8,4.1-11.1,15.5-11.1c5.3,0,10.5,0.9,13.3,1.7l-1.4,6.4c-2.8-0.6-6.5-1-10.9-1c-5.5,0-7.3,0.7-7.3,3.8
    c0,3.2,1.9,3.7,5.9,4.5l4.5,0.9c7.3,1.4,10.5,3.7,10.5,11.1c0,8.6-4.4,11.5-15.5,11.5C336.7,490.7,331,490,327.7,488.8z"/>
    <path class="st0" d="M375.8,447.1h-9.9v-9h9.9V447.1z M375.7,489.8h-9.6v-37.4h9.6V489.8z"/>
    <path class="st0" d="M443.9,489.8h-9.6v-22.3c0-6.2-1.8-7.9-7.1-7.9c-5.9,0-7.5,2.8-7.5,8.5v21.6H410v-22.3
      c0-6.2-1.8-7.9-7.1-7.9c-5.9,0-7.5,2.8-7.5,8.5v21.6h-9.6v-37.4h8.6l0.7,4.9h0.3c1.4-2.7,4.3-5.7,11.3-5.7c6.4,0,10,2,11.8,5.9
      h0.4c1.4-2.7,4.4-5.9,11.6-5.9c10.5,0,13.4,4.8,13.4,14.8V489.8z"/>
    <path class="st0" d="M463.1,486.4l-0.3,0.1c0.1,1.5,0.3,3.3,0.3,5.1v6.3l-9.6,5.6v-51h8.2l0.6,3.9l0.3,0.1
      c2.7-3.1,6.6-4.7,11.9-4.7c11.3,0,17.2,6.7,17.2,19.1v0.6c0,12.5-5.9,19.1-17.2,19.1C469.6,490.6,465.8,489.1,463.1,486.4z
        M478.6,481.5c2.4-1.9,3.3-5.3,3.3-9.8v-1.1c0-4.5-0.9-7.9-3.3-9.8c-1.4-1.1-3.4-1.7-6.1-1.7c-2.7,0-4.7,0.6-6.1,1.7
      c-2.4,1.9-3.3,5.3-3.3,9.8v1.1c0,4.5,0.9,7.9,3.3,9.8c1.4,1.1,3.4,1.7,6.1,1.7C475.2,483.2,477.2,482.7,478.6,481.5z"/>
    <path class="st0" d="M509.5,478.9c0,3.2,0.7,3.8,3.7,3.8c1,0,2-0.1,2.7-0.1v7c-1.2,0.4-3.2,0.7-5.4,0.7c-7.6,0-10.5-2.3-10.5-10
      v-37.2l9.6-5.6V478.9z"/>
    <path class="st0" d="M532.4,447.1h-9.9v-9h9.9V447.1z M532.3,489.8h-9.6v-37.4h9.6V489.8z"/>
    <path class="st0" d="M581.3,489.8h-9.6v-30.2h-16.6v30.2h-9.5v-30.2H539v-7.2h6.6V449c0-8.4,3.4-12,12.6-12
      c2.3,0,4.3,0.2,5.7,0.5v6.8c-0.8-0.1-2.2-0.1-3.3-0.1c-4.3,0-5.8,1.4-5.8,5.2v2.9h26.5V489.8z M581.5,447.1h-9.9v-9h9.9V447.1z"
      />
    <path class="st0" d="M599.4,473.6c0.2,3.4,1.1,5.7,2.9,7.2c2,1.7,5.1,2.4,9.4,2.4c4.2,0,8.2-0.7,11.1-1.6l1.3,6.3
      c-2.8,1.3-7.7,2.6-13.9,2.6c-14.1,0-20.6-6.4-20.6-19.6v-0.6c0-12,6.5-18.7,18.8-18.7c12.1,0,17.5,6.5,17.5,16.6v5.3H599.4z
        M599.4,467.3h17.5v-0.6c0-3-0.8-5.2-2.7-6.5c-1.4-0.9-3.3-1.4-5.9-1.4c-2.7,0-4.7,0.4-6,1.4C600.4,461.6,599.6,464,599.4,467.3z
      "/>
    <path class="st0" d="M632.1,471.4v-0.6c0-12.5,5.9-19.1,17.2-19.1c4.9,0,8.7,1.4,11.4,4.2l0.3-0.1c-0.1-1.5-0.3-3.3-0.3-5.1v-7.6
      l9.6-5.6v52.3H662l-0.6-3.9l-0.3-0.1c-2.7,3.2-6.7,4.7-11.9,4.7C637.9,490.6,632.1,483.9,632.1,471.4z M657.4,481.5
      c2.4-1.9,3.3-5.3,3.3-9.8v-1.1c0-4.5-0.9-7.9-3.3-9.8c-1.4-1.1-3.4-1.7-6.1-1.7c-2.7,0-4.7,0.6-6.1,1.7c-2.4,1.9-3.3,5.3-3.3,9.8
      v1.1c0,4.5,0.9,7.9,3.3,9.8c1.4,1.1,3.4,1.7,6.1,1.7C654,483.2,655.9,482.7,657.4,481.5z"/>
  </g>
  <g>
    <path class="st2" d="M323,528.1l2.3-0.1c2.8-0.2,3.7-1.6,3.7-6.1v-7.2c0-8,3-13,13.3-13h5.8v7.6h-4c-4.8,0-5.5,2.5-5.5,6.4v6.2
      c0,6.4-2,9.4-5.5,10.4v0.1c3.5,1,5.5,4,5.5,10.4v6.2c0,3.9,0.7,6.4,5.5,6.4h4v7.6h-5.8c-10.4,0-13.3-5-13.3-13v-7.2
      c0-4.5-0.9-5.9-3.7-6.1l-2.3-0.1V528.1z"/>
    <path class="st0" d="M392.6,536.4c1,3.5,1.7,6.8,2.2,10.2h0.3c0.4-3.3,1-6.6,2-10.2l5.3-18.9h9.2L399.9,555h-10.2l-5.5-18.9
      c-1-3.4-1.5-6.6-2-9.8h-0.2c-0.5,3.2-1.2,6.4-2.1,9.8l-5.5,18.9H364l-11.7-37.6h9.9l5.2,18.9c1,3.7,1.5,6.8,2,10.2h0.3
      c0.5-3.3,1.2-6.6,2.2-10.2l5.5-18.9h9.6L392.6,536.4z"/>
    <path class="st0" d="M425.5,538.7c0.2,3.5,1.2,5.8,3,7.3c2,1.7,5.1,2.4,9.4,2.4c4.2,0,8.3-0.7,11.2-1.6l1.3,6.3
      c-2.8,1.3-7.8,2.6-14,2.6c-14.2,0-20.7-6.4-20.7-19.7v-0.6c0-12,6.6-18.8,18.9-18.8c12.2,0,17.6,6.5,17.6,16.7v5.3H425.5z
        M425.5,532.4h17.6v-0.6c0-3-0.8-5.2-2.7-6.5c-1.4-0.9-3.3-1.4-5.9-1.4c-2.7,0-4.7,0.4-6,1.4C426.5,526.6,425.7,529,425.5,532.4z
      "/>
    <path class="st0" d="M469.3,551L469,551l-0.6,4h-8.3v-47l9.6-5.6v13.2c0,1.8-0.1,3.6-0.3,5.1l0.3,0.1c2.7-2.8,6.5-4.2,11.4-4.2
      c11.4,0,17.3,6.7,17.3,19.2v0.6c0,12.5-5.9,19.2-17.3,19.2C476,555.7,472,554.1,469.3,551z M485.4,546.6c2.4-1.9,3.3-5.3,3.3-9.9
      v-1.2c0-4.5-0.9-7.9-3.3-9.9c-1.4-1.2-3.4-1.7-6.1-1.7c-2.7,0-4.7,0.6-6.1,1.7c-2.4,1.9-3.3,5.3-3.3,9.9v1.2
      c0,4.5,0.9,7.9,3.3,9.9c1.4,1.2,3.4,1.7,6.1,1.7C482,548.4,483.9,547.8,485.4,546.6z"/>
    <path class="st2" d="M506.1,545.3h9.9v9.7h-9.9V545.3z"/>
    <path class="st0" d="M523.6,536.5v-0.6c0-12.5,5.9-19.2,17.3-19.2c5,0,8.8,1.4,11.4,4.2l0.3-0.1c-0.1-1.5-0.3-3.3-0.3-5.1V508
      l9.6-5.6V555h-8.3l-0.6-4l-0.3-0.1c-2.7,3.2-6.7,4.8-12,4.8C529.5,555.7,523.6,549,523.6,536.5z M549,546.6
      c2.4-1.9,3.3-5.3,3.3-9.9v-1.2c0-4.5-0.9-7.9-3.3-9.9c-1.4-1.2-3.4-1.7-6.1-1.7c-2.7,0-4.7,0.6-6.1,1.7c-2.4,1.9-3.3,5.3-3.3,9.9
      v1.2c0,4.5,0.9,7.9,3.3,9.9c1.4,1.2,3.4,1.7,6.1,1.7C545.6,548.4,547.6,547.8,549,546.6z"/>
    <path class="st0" d="M579.9,538.7c0.2,3.5,1.2,5.8,3,7.3c2,1.7,5.1,2.4,9.4,2.4c4.2,0,8.3-0.7,11.2-1.6l1.3,6.3
      c-2.8,1.3-7.8,2.6-14,2.6c-14.2,0-20.7-6.4-20.7-19.7v-0.6c0-12,6.6-18.8,18.9-18.8c12.2,0,17.6,6.5,17.6,16.7v5.3H579.9z
        M579.9,532.4h17.6v-0.6c0-3-0.8-5.2-2.7-6.5c-1.4-0.9-3.3-1.4-5.9-1.4c-2.7,0-4.7,0.4-6,1.4C580.9,526.6,580.1,529,579.9,532.4z
      "/>
    <path class="st0" d="M633.9,555h-10.3l-14.1-37.6h10.1l6.5,18.3c1.2,3.5,2.2,7.3,2.7,10.5h0.3c0.6-3.2,1.4-7,2.7-10.5l6.8-18.3
      h9.7L633.9,555z"/>
    <path class="st2" d="M677,536.5l-2.3,0.1c-2.8,0.2-3.7,1.6-3.7,6.1v7.2c0,8-3,13-13.3,13h-5.8v-7.6h4c4.8,0,5.5-2.5,5.5-6.4v-6.2
      c0-6.4,2-9.4,5.5-10.4v-0.1c-3.5-1-5.5-4-5.5-10.4v-6.2c0-3.9-0.7-6.4-5.5-6.4h-4v-7.6h5.8c10.4,0,13.3,5,13.3,13v7.2
      c0,4.5,0.9,5.9,3.7,6.1l2.3,0.1V536.5z"/>
  </g>
</g>
</svg>